<?xml version="1.0" standalone="no"?>
<!DOCTYPE svg PUBLIC "-//W3C//DTD SVG 20010904//EN"
 "http://www.w3.org/TR/2001/REC-SVG-20010904/DTD/svg10.dtd">
<svg version="1.0" xmlns="http://www.w3.org/2000/svg"
 width="1080.000000pt" height="1080.000000pt" viewBox="0 0 1080.000000 1080.000000"
 preserveAspectRatio="xMidYMid meet">

<g transform="translate(0.000000,1080.000000) scale(0.100000,-0.100000)"
fill="#000000" stroke="none">
<path d="M5050 8813 c-843 -103 -1538 -441 -2105 -1024 -501 -516 -813 -1134
-933 -1851 -26 -157 -27 -176 -27 -538 0 -362 1 -381 27 -538 125 -747 463
-1396 999 -1917 556 -541 1268 -876 2029 -955 123 -13 597 -13 720 0 645 67
1268 324 1785 736 141 113 416 388 529 529 365 457 611 1005 705 1565 34 202
41 300 41 580 0 146 -5 308 -10 360 -79 761 -414 1473 -955 2029 -520 535
-1171 874 -1912 998 -147 24 -183 26 -508 28 -192 2 -366 1 -385 -2z m-2224
-2167 c137 -63 221 -239 181 -376 -9 -30 -28 -73 -43 -95 -14 -22 -22 -31 -18
-20 39 110 40 190 4 273 -71 160 -255 241 -383 170 l-46 -26 15 24 c19 29 75
64 118 75 46 12 112 2 172 -25z m-80 -73 c67 -23 154 -110 177 -177 34 -99 17
-195 -49 -281 -30 -40 -44 -43 -61 -16 -10 16 -8 23 13 42 69 65 88 164 46
245 -41 80 -135 144 -211 144 -80 0 -145 -84 -139 -183 3 -49 0 -58 -16 -63
-28 -9 -38 15 -32 83 9 107 56 181 133 208 51 19 80 18 139 -2z m-157 -269
c-6 -8 -15 -14 -20 -14 -16 0 -10 111 9 148 l17 37 3 -78 c2 -50 -1 -84 -9
-93z m2036 -371 c121 -201 230 -382 242 -402 l21 -36 -59 -100 c-32 -55 -63
-100 -68 -100 -6 0 -131 200 -279 445 l-268 445 -107 3 -107 3 0 54 0 55 203
0 202 0 220 -367z m1265 -478 l0 -845 -93 0 -94 0 -6 572 c-4 314 -7 670 -7
790 l0 218 -131 0 c-146 0 -141 -4 -94 69 l25 41 200 0 200 0 0 -845z m730
573 l-1 -273 -94 -100 -95 -99 0 317 0 317 -150 0 -150 0 0 55 0 55 245 0 245
0 0 -272z m1056 215 l23 -52 -304 -328 c-189 -203 -301 -331 -296 -337 5 -6
147 -186 316 -401 169 -214 312 -395 317 -402 6 -7 0 -30 -17 -62 l-25 -51
-73 0 -74 0 -314 396 c-173 219 -318 405 -323 415 -7 15 41 71 264 311 151
161 286 307 302 324 l30 32 -22 51 -22 51 -171 0 -171 0 54 55 55 55 214 -2
215 -3 22 -52z m-4846 -37 c0 -2 -8 -10 -17 -17 -16 -13 -17 -12 -4 4 13 16
21 21 21 13z m1352 -93 c8 -10 115 -184 238 -388 122 -203 248 -412 279 -463
53 -88 57 -92 71 -74 9 10 139 226 290 480 l274 462 148 0 148 0 0 -777 0
-778 -162 2 -163 2 -6 313 c-4 172 -7 375 -8 451 0 76 -5 136 -10 133 -4 -3
-106 -170 -226 -371 l-218 -366 -85 3 -84 3 -222 362 c-121 199 -224 359 -228
357 -5 -3 -8 -204 -8 -447 l0 -442 -162 2 -163 2 -3 763 c-1 420 0 769 3 776
3 9 41 12 143 12 120 0 141 -2 154 -17z m2178 -338 c0 -258 3 -355 11 -355 7
0 27 17 47 38 19 20 170 180 336 354 l301 318 198 0 c196 0 198 0 184 -20 -11
-16 -274 -300 -579 -625 l-46 -49 51 -66 c109 -137 483 -609 548 -690 38 -47
67 -89 66 -93 -1 -5 -94 -8 -205 -8 l-204 0 -19 25 c-11 13 -56 69 -102 124
-45 54 -147 179 -226 276 l-144 177 -106 -105 -106 -106 -5 -196 -5 -195 -170
0 -170 0 -3 775 -2 776 175 0 175 0 0 -355z m-3772 -209 l252 -148 0 -47 c0
-43 -12 -71 -32 -71 -4 0 -8 15 -8 34 0 34 -1 35 -238 175 -131 77 -246 143
-255 147 -22 8 -22 40 0 53 10 5 20 8 23 7 3 -2 119 -69 258 -150z m-57 -82
c213 -126 229 -138 229 -164 0 -26 -4 -29 -42 -34 -24 -4 -132 -19 -240 -34
l-198 -28 0 27 c0 25 4 28 53 34 98 14 97 12 97 113 l0 89 -70 39 c-59 33 -70
43 -70 67 0 15 3 27 6 27 3 0 109 -61 235 -136z m-141 -128 c0 -21 -6 -25 -51
-31 -27 -4 -53 -4 -57 -1 -14 15 17 41 54 47 21 3 42 7 47 8 4 0 7 -10 7 -23z
m2848 -193 l-3 -108 -85 -140 -85 -140 -62 -3 c-41 -2 -63 1 -63 8 0 16 284
490 293 490 5 0 7 -48 5 -107z m-850 -74 l82 -137 0 -171 0 -171 -95 0 -95 0
0 327 c0 276 2 324 13 308 8 -11 50 -81 95 -156z m2232 -266 l0 -213 -95 0
-95 0 0 167 0 168 72 72 72 73 23 -28 c22 -26 22 -34 23 -239z m-3658 -253
c30 -84 35 -154 14 -204 -22 -54 -33 -50 -28 8 3 41 -2 74 -23 136 -15 45 -33
84 -40 86 -11 5 -392 -36 -477 -51 -29 -5 -36 7 -20 33 10 14 425 71 502 68
l45 -1 27 -75z m-65 -85 c43 -124 14 -193 -84 -202 -53 -6 -89 8 -130 46 -12
12 -26 21 -30 21 -4 -1 -44 -34 -88 -75 l-80 -74 -9 26 c-8 25 -3 33 74 103
78 72 82 77 75 108 -3 17 -10 34 -14 36 -3 2 -52 -1 -108 -8 l-102 -12 -6 24
c-3 14 -5 25 -3 27 7 5 416 53 447 51 33 -1 35 -3 58 -71z m-363 -120 c-77
-71 -96 -71 -22 0 31 30 62 55 69 55 7 0 -14 -25 -47 -55z m5490 -370 c114
-104 186 -177 186 -189 0 -15 -36 -86 -43 -86 -1 0 -2 13 -2 29 0 26 -26 53
-185 200 -102 94 -193 171 -203 171 -16 0 -16 1 -1 26 12 17 24 24 40 22 12
-2 105 -78 208 -173z m-94 -50 c78 -71 156 -142 173 -157 28 -24 30 -29 19
-53 l-12 -27 -101 94 c-156 144 -194 177 -198 173 -2 -2 17 -41 42 -87 152
-281 166 -312 153 -331 -12 -16 -26 -11 -190 64 -98 45 -179 80 -181 78 -2 -2
57 -67 130 -144 74 -77 134 -144 134 -150 1 -5 -4 -17 -9 -25 -10 -15 -53 26
-293 276 l-58 61 18 31 c10 18 21 32 25 32 4 0 84 -36 179 -80 95 -44 173 -79
175 -77 2 2 -43 90 -100 197 l-103 195 21 32 c12 18 24 32 28 30 3 -1 70 -60
148 -132z m-209 -119 c78 -36 98 -51 114 -80 11 -19 17 -37 14 -40 -4 -4 -259
107 -278 121 -7 5 32 43 44 43 7 0 55 -20 106 -44z m-4347 -52 c31 -42 61 -93
67 -114 14 -46 5 -100 -21 -132 l-20 -23 6 32 c4 18 3 48 0 67 -8 44 -119 196
-143 196 -10 0 -111 -45 -225 -100 -114 -55 -212 -100 -218 -100 -7 0 -8 6 -2
16 11 20 448 233 479 234 16 0 37 -21 77 -76z m4692 -90 c29 -49 30 -74 4
-105 -17 -22 -19 -22 -20 -5 0 10 -25 65 -55 121 -30 57 -55 106 -55 110 0 15
104 -84 126 -121z m-4752 11 c26 -35 51 -77 55 -92 26 -92 -83 -182 -185 -154
-54 15 -87 39 -129 93 l-35 47 -82 -39 c-62 -30 -85 -37 -95 -29 -20 17 -16
38 10 48 12 5 105 50 207 100 102 50 190 91 196 91 5 0 32 -29 58 -65z m4568
-146 c57 -28 98 -68 98 -93 0 -12 -9 -34 -20 -51 l-20 -30 0 25 c0 18 -19 45
-66 90 -36 36 -70 73 -75 82 -8 16 -7 17 15 8 14 -5 45 -19 68 -31z m-695
-187 c7 -4 19 -24 27 -43 13 -32 13 -38 0 -57 -21 -30 -28 -28 -42 12 -7 19
-20 37 -29 41 -17 6 -26 0 -170 -102 -61 -43 -86 -47 -40 -6 33 29 200 149
217 156 21 8 23 8 37 -1z m-47 -101 c9 -17 0 -27 -75 -81 -47 -34 -85 -65 -85
-70 0 -17 63 -140 72 -140 5 0 38 21 74 46 48 34 64 42 66 30 0 -9 1 -20 2
-25 1 -5 -28 -30 -62 -56 -47 -34 -62 -51 -58 -63 19 -53 62 -142 69 -142 4 0
42 25 82 55 41 30 79 55 85 55 9 0 11 -4 14 -29 1 -8 -206 -163 -211 -158 -1
1 -46 101 -101 222 l-100 220 77 55 c42 31 90 66 106 78 37 26 32 26 45 3z
m-3105 -97 c150 -100 160 -111 130 -150 -13 -17 -16 -17 -27 -4 -25 31 -242
174 -262 172 -11 0 -91 -72 -183 -164 -90 -89 -163 -159 -163 -154 0 19 365
365 385 366 11 0 65 -30 120 -66z m64 -161 c3 -2 -3 -11 -12 -20 -15 -15 -22
-13 -99 40 -46 32 -87 57 -93 57 -11 0 -115 -101 -115 -112 0 -4 28 -26 63
-49 34 -23 64 -43 66 -45 2 -2 -4 -10 -12 -19 -15 -14 -22 -12 -87 31 l-71 48
-59 -59 c-33 -33 -60 -63 -60 -67 0 -4 38 -33 85 -64 68 -45 83 -60 74 -70 -6
-8 -16 -14 -21 -14 -11 0 -218 138 -218 146 0 3 77 81 171 174 l171 169 106
-71 c59 -39 109 -73 111 -75z m3137 139 c6 -4 19 -22 29 -41 13 -26 15 -39 6
-57 -15 -33 -30 -30 -46 10 -8 18 -21 36 -29 39 -9 4 -38 -9 -67 -29 -29 -19
-56 -37 -60 -40 -9 -5 -39 47 -39 68 0 7 9 19 20 26 17 10 21 8 35 -19 l16
-30 57 41 c62 43 62 43 78 32z m-3306 -164 c58 -38 69 -61 44 -89 -17 -19 -17
-19 -30 0 -7 10 -36 33 -64 51 -49 31 -50 33 -34 51 23 25 26 24 84 -13z
m3465 -57 c13 -31 15 -43 6 -60 -16 -30 -29 -26 -48 14 -9 19 -22 36 -29 39
-8 3 -48 -18 -90 -46 -74 -50 -77 -51 -91 -33 -24 33 -27 65 -9 83 19 18 21
17 52 -34 10 -17 16 -14 75 27 97 69 107 70 134 10z m-983 -18 c10 -12 26
-100 49 -272 32 -247 33 -254 14 -267 -10 -8 -20 -12 -22 -11 -1 2 -16 107
-33 233 -17 126 -33 239 -35 250 -6 27 -28 36 -60 24 -27 -10 -38 -1 -25 20 8
14 61 38 86 39 6 1 18 -7 26 -16z m-2621 -99 c37 -26 70 -53 73 -60 3 -7 -4
-23 -14 -36 l-19 -23 -15 21 c-8 12 -45 40 -81 64 -63 41 -65 44 -49 61 10 11
22 19 27 19 6 0 41 -21 78 -46z m2559 24 c0 -2 9 -68 20 -148 34 -246 43 -330
39 -334 -2 -2 -13 -6 -25 -10 -22 -7 -26 14 -81 441 -5 34 -2 42 13 46 25 6
34 7 34 5z m-797 -92 c68 -16 122 -55 154 -112 33 -56 32 -169 -1 -240 -30
-64 -51 -80 -31 -23 17 47 20 155 6 192 -16 42 -74 99 -121 121 -32 14 -76 21
-153 25 l-107 6 15 23 c15 20 24 22 98 22 45 0 108 -6 140 -14z m3 -101 c71
-36 98 -80 98 -163 0 -92 -18 -138 -80 -198 -67 -66 -119 -85 -253 -91 l-103
-6 6 29 c3 16 22 110 41 209 19 99 37 195 41 213 l7 32 96 0 c83 0 104 -4 147
-25z"/>
<path d="M2470 5379 l0 -71 68 7 c37 4 85 10 107 14 l40 6 -98 58 c-54 31
-102 57 -108 57 -5 0 -9 -32 -9 -71z m71 1 c27 -15 24 -30 -6 -30 -18 0 -25 5
-25 20 0 23 4 24 31 10z"/>
<path d="M2742 4497 l-83 -10 7 -31 c15 -72 65 -120 123 -118 42 1 70 18 77
48 7 29 -16 117 -31 119 -6 1 -47 -3 -93 -8z m35 -57 c14 -11 32 -20 40 -20
19 0 13 -30 -8 -43 -23 -14 -73 7 -89 38 -24 44 12 60 57 25z"/>
<path d="M3153 3656 c-46 -22 -83 -45 -83 -50 0 -18 51 -76 80 -91 73 -38 170
4 170 73 0 24 -58 112 -73 111 -7 -1 -49 -20 -94 -43z m47 -51 c7 -8 28 -15
46 -15 19 0 34 -3 34 -7 0 -19 -37 -43 -65 -43 -53 0 -110 58 -72 73 23 10 45
7 57 -8z"/>
<path d="M5356 2609 c-2 -8 -14 -68 -26 -134 -12 -66 -25 -139 -31 -162 -18
-80 -16 -83 49 -83 139 2 234 81 249 210 8 66 -23 131 -74 155 -49 24 -161 33
-167 14z m56 -60 c-2 -13 -12 -71 -23 -127 -11 -57 -19 -106 -16 -108 8 -8
102 17 135 36 l32 19 -16 -24 c-21 -33 -109 -75 -156 -75 -21 0 -38 3 -38 8 0
9 51 273 56 290 7 23 29 7 26 -19z"/>
</g>
</svg>
